<svg xmlns="http://www.w3.org/2000/svg" xmlns:xlink="http://www.w3.org/1999/xlink" viewBox="0 0 381.41 57.47"><defs><style>.cls-1{fill:url(#linear-gradient);}.cls-2{fill:#14284a;}</style><linearGradient id="linear-gradient" x1="28.97" y1="36.64" x2="63.27" y2="2.33" gradientUnits="userSpaceOnUse"><stop offset="0" stop-color="#fbb93e"/><stop offset="0.25" stop-color="#f9ab3b"/><stop offset="0.73" stop-color="#f58734"/><stop offset="1" stop-color="#f2702f"/></linearGradient></defs><g id="Layer_2" data-name="Layer 2"><g id="Option_2"><path class="cls-1" d="M71.78,38.7l-39.71,1-15-34.53C15.8,2.34,17.57,0,21,0h40l14.5,33.47C76.65,36.28,75,38.62,71.78,38.7Z"/><path class="cls-2" d="M67.07,42.24l-37.95,1-15-34.38H12.67c-3.43,0-5.2,2.34-3.94,5.22l15,34.53,39.71-1c3.24-.08,4.87-2.42,3.65-5.23Z"/><path class="cls-2" d="M58.75,51.1l-37.95,1-15-34.38H4.34C.92,17.72-.85,20.06.4,22.94l15,34.53,39.71-1c3.23-.08,4.86-2.42,3.65-5.23Z"/><path class="cls-2" d="M114.75,41.58l8.73,9.82H114l-5.79-6.93a20.07,20.07,0,0,1-4.91.6A19.14,19.14,0,0,1,83.76,25.54,19.13,19.13,0,0,1,103.29,6.07c10.86,0,19.48,8.07,19.48,19.47A19.22,19.22,0,0,1,114.75,41.58Zm-11.46-3.32c6.88,0,11.62-5,11.62-12.72s-4.74-12.6-11.62-12.6S91.62,17.8,91.62,25.54,96.36,38.26,103.29,38.26Z"/><path class="cls-2" d="M142,45.18c-8.73,0-15.33-6.11-15.33-15.6S133.46,14,142.19,14s15.55,6.05,15.55,15.6S150.76,45.18,142,45.18Zm0-6.65c4,0,7.91-3,7.91-9s-3.76-8.95-7.8-8.95-7.69,2.9-7.69,9S137.88,38.53,142,38.53Z"/><path class="cls-2" d="M171,44.69h-7.63V14.47H171v4.69A10.49,10.49,0,0,1,180.27,14v8h-2c-4.53,0-7.26,1.75-7.26,7.59Z"/><path class="cls-2" d="M213.93,44.69h-7.69V40.87a11.14,11.14,0,0,1-9,4.2c-7,0-12.11-4.58-12.11-12.87V14.47h7.64V31.11c0,4.85,2.67,7.47,6.71,7.47s6.77-2.62,6.77-7.47V14.47h7.69Z"/><path class="cls-2" d="M233,45.18c-7.58,0-12.87-4.42-13.2-10h7.69c.28,2.29,2.4,4,5.46,4s4.64-1.36,4.64-3.11c0-5.4-17.08-2-17.08-13,0-5,4.47-9,11.95-9,7.31,0,11.73,4,12.16,10h-7.31c-.22-2.34-2.07-3.93-5.07-3.93-2.84,0-4.31,1.15-4.31,2.9,0,5.51,16.75,2.07,17,13.14C244.91,41.26,240.39,45.18,233,45.18Z"/><path class="cls-2" d="M284.58,25.71c0,11.51-7.91,19-20.08,19H251.19V6.61H264.5C276.67,6.61,284.58,14.14,284.58,25.71ZM264.23,38.2c8,0,12.55-4.58,12.55-12.49s-4.53-12.66-12.55-12.66h-5.4V38.2Z"/><path class="cls-2" d="M303.73,45.18c-8.73,0-15.33-6.11-15.33-15.6S295.21,14,303.94,14s15.55,6.05,15.55,15.6S312.51,45.18,303.73,45.18Zm0-6.65c4,0,7.91-3,7.91-9s-3.77-8.95-7.81-8.95-7.69,2.9-7.69,9S299.63,38.53,303.73,38.53Z"/><path class="cls-2" d="M338.09,14c7.53,0,12.61,3.93,14.24,10.69H344.1a6,6,0,0,0-6.06-4.2c-4.25,0-7.09,3.22-7.09,9.11s2.84,9.06,7.09,9.06c3.16,0,5.13-1.42,6.06-4.15h8.23c-1.63,6.44-6.71,10.69-14.24,10.69-8.72,0-14.94-6.11-14.94-15.6S329.37,14,338.09,14Z"/><path class="cls-2" d="M369.52,45.18c-7.59,0-12.88-4.42-13.2-10H364c.27,2.29,2.4,4,5.45,4s4.64-1.36,4.64-3.11c0-5.4-17.07-2-17.07-13,0-5,4.47-9,11.94-9,7.31,0,11.73,4,12.17,10h-7.31c-.22-2.34-2.08-3.93-5.08-3.93-2.83,0-4.31,1.15-4.31,2.9,0,5.51,16.75,2.07,17,13.14C381.41,41.26,376.88,45.18,369.52,45.18Z"/></g></g></svg>